<?xml version="1.0" encoding="utf-8"?>
<!-- Generator: Adobe Illustrator 26.5.0, SVG Export Plug-In . SVG Version: 6.00 Build 0)  -->
<svg version="1.1" id="Laag_1" xmlns="http://www.w3.org/2000/svg" xmlns:xlink="http://www.w3.org/1999/xlink" x="0px" y="0px"
	 viewBox="0 0 32 32" style="enable-background:new 0 0 32 32;" xml:space="preserve">
<style type="text/css">
	.st0{fill:#3CBAD9;}
	.st1{fill:#591B4E;}
	.st2{fill:#E95D0C;}
</style>
<g>
	<g>
		<path class="st0" d="M28.5,0.3c-0.9,0-1.8,0.3-2.5,1l-6.8,6.8c-1.3,1.3-1.3,3.5,0,4.8l6.8,6.8c0.7,0.7,1.6,1,2.5,1
			c0.9,0,1.8-0.3,2.5-1c1.4-1.4,1.4-3.6,0-5L29.3,13c-1.4-1.4-1.4-3.6,0-5L31,6.3c1.4-1.4,1.4-3.6,0-5C30.3,0.6,29.4,0.3,28.5,0.3"
			/>
		<path class="st1" d="M27.2,24.9l-3.7-3.7c-1-1-2.5-1-3.5,0l-3.7,3.7c-1,1-1,2.6,0,3.6c1,1,2.6,1,3.6,0l0.9-0.9
			c0.5-0.5,1.4-0.5,1.9,0l0.9,0.9c0.5,0.5,1.2,0.7,1.8,0.7s1.3-0.2,1.8-0.7C28.2,27.6,28.2,25.9,27.2,24.9z"/>
		<g>
			<path class="st2" d="M16.9,20c0.7-0.7,1.1-1.6,1.1-2.6c0-1-0.4-1.9-1.1-2.6L6.2,4.2c-0.7-0.7-1.6-1-2.6-1c-0.9,0-1.9,0.3-2.6,1
				C0.4,4.9,0,5.8,0,6.8s0.4,1.9,1.1,2.6L6.8,15c1.4,1.4,1.4,3.5,0,4.9l-5.7,5.7C0.4,26.3,0,27.2,0,28.2c0,1,0.4,1.9,1.1,2.6
				c1.4,1.4,3.7,1.4,5.1,0L16.9,20z"/>
		</g>
	</g>
</g>
</svg>
