<?xml version="1.0" encoding="UTF-8" standalone="no"?>
<svg
   xmlns:dc="http://purl.org/dc/elements/1.1/"
   xmlns:cc="http://creativecommons.org/ns#"
   xmlns:rdf="http://www.w3.org/1999/02/22-rdf-syntax-ns#"
   xmlns:svg="http://www.w3.org/2000/svg"
   xmlns="http://www.w3.org/2000/svg"
   viewBox="0 0 385.72 106.48"
   height="106.48"
   width="385.72"
   xml:space="preserve"
   id="svg2"
   version="1.1"><metadata
     id="metadata8"><rdf:RDF><cc:Work
         rdf:about=""><dc:format>image/svg+xml</dc:format><dc:type
           rdf:resource="http://purl.org/dc/dcmitype/StillImage" /></cc:Work></rdf:RDF></metadata><defs
     id="defs6" /><g
     transform="matrix(1.3333333,0,0,-1.3333333,0,106.48)"
     id="g10"><g
       transform="scale(0.1)"
       id="g12"><path
         id="path14"
         style="fill:#ffffff;fill-opacity:1;fill-rule:nonzero;stroke:none"
         d="m 368.496,497.766 c 7.106,-5.985 9.344,-9.332 9.344,-13.825 0,-4.488 -1.871,-7.472 -11.582,-20.168 -8.965,-11.582 -11.949,-15.324 -17.563,-15.324 -4.855,0 -8.207,2.996 -16.437,6.727 -8.207,3.742 -18.297,7.105 -29.516,7.105 -14.933,0 -20.168,-5.234 -20.168,-10.836 0,-5.98 5.235,-8.965 18.676,-11.961 6.727,-1.492 17.563,-3.73 23.91,-5.222 40.352,-9.348 59.41,-28.403 59.41,-62.407 0,-41.46 -38.113,-65.738 -81.828,-65.738 -37.73,0 -59.406,11.582 -73.961,21.672 -6.726,4.856 -11.215,8.953 -11.215,14.555 0,3.742 1.493,7.105 10.836,19.433 9.344,12.332 13.075,16.063 18.309,16.063 4.477,0 9.348,-3.731 15.695,-7.461 10.824,-6.727 26.149,-11.219 41.098,-11.219 15.676,0 21.656,5.602 21.656,11.949 0,5.239 -4.488,9.348 -17.183,12.332 -8.965,2.055 -17.368,3.743 -28.02,6.36 -28.769,7.105 -55.664,25.039 -55.664,60.898 0,41.84 37.367,65.754 82.191,65.754 22.422,0 47.825,-6.738 62.012,-18.687" /><path
         id="path16"
         style="fill:#ffffff;fill-opacity:1;fill-rule:nonzero;stroke:none"
         d="m 501.383,231.027 c -22.422,0 -42.973,5.602 -60.903,14.188 -15.312,7.473 -21.292,11.582 -21.292,18.687 0,5.223 2.617,10.078 9.332,20.914 10.468,16.442 12.707,19.426 19.07,19.426 5.223,0 11.949,-4.476 22.406,-9.332 9.711,-4.476 18.297,-7.855 31.387,-7.855 22.785,0 32.875,12.527 32.875,32.89 v 3.352 c -10.09,-4.477 -23.547,-8.219 -41.098,-8.219 -47.457,0 -76.222,27.274 -80.699,72.481 -1.492,14.566 -1.113,37.734 0,49.316 4.109,42.59 33.988,79.574 92.648,79.574 36.243,0 67.246,-14.199 79.957,-23.164 8.586,-5.969 10.457,-11.586 10.457,-20.93 V 325.547 c 0,-65.375 -46.699,-94.52 -94.14,-94.52 m -28.024,194.629 c -0.379,-5.601 -0.379,-19.043 0,-26.148 1.114,-18.297 9.711,-31.75 30.258,-31.75 12.696,0 25.406,5.234 30.262,8.597 v 72.848 c -4.109,3.363 -16.438,8.598 -28.77,8.598 -19.421,0 -30.636,-13.074 -31.75,-32.145" /><path
         id="path18"
         style="fill:#ffffff;fill-opacity:1;fill-rule:nonzero;stroke:none"
         d="m 822.508,439.488 c 1.488,-15.324 1.125,-41.093 0,-56.043 -3.367,-45.57 -32.879,-77.336 -83.309,-77.336 -12.328,0 -28.019,2.996 -37.746,7.489 V 266.52 c 0,-31.766 0,-31.766 -31.004,-31.766 -31.008,0 -31.008,0 -31.008,31.766 v 211.449 c 0,6.347 1.875,10.09 6.731,13.441 12.328,8.977 42.586,25.035 84.051,25.035 50.441,0 88.172,-31.761 92.285,-76.957 m -121.055,9.332 v -76.957 c 5.235,-3.351 17.567,-7.093 30.262,-7.093 19.433,0 28.398,10.835 29.512,29.511 0.757,11.953 0.757,23.535 0,33.258 -1.493,17.551 -11.192,30.262 -31.75,30.262 -10.09,0 -22.789,-4.871 -28.024,-8.981" /><path
         id="path20"
         style="fill:#ffffff;fill-opacity:1;fill-rule:nonzero;stroke:none"
         d="m 2326.03,478.082 c 0,-1.031 -0.17,-2.586 -2.41,-10.324 -2.41,-8.082 -3.6,-10.145 -7.22,-10.145 -2.07,0 -5.51,0.684 -11.19,2.063 -4.47,1.027 -9.79,2.058 -18.07,2.058 -19.94,0 -29.93,-8.605 -29.93,-30.277 V 318.758 c 0,-12.731 0,-12.731 -13.76,-12.731 -14.28,0 -14.28,0 -14.28,12.731 v 115.965 c 0,34.066 19.79,54.547 56.1,54.547 11.51,0 23.05,-1.723 30.61,-3.786 5.17,-1.554 10.15,-3.093 10.15,-7.402" /><path
         id="path22"
         style="fill:#ffffff;fill-opacity:1;fill-rule:nonzero;stroke:none"
         d="M 1434.54,472.063 V 330.797 c 0,-35.434 -10.67,-66.758 -33.04,-85.859 -3.95,-3.426 -6.88,-5.836 -9.8,-5.836 -2.58,0 -4.29,1.378 -9.81,7.91 -5.15,6.195 -6.36,7.562 -6.36,9.984 0,2.399 2.76,4.461 6.03,7.738 19.43,18.407 25.11,32.516 25.11,63.321 v 144.008 c 0,14.109 0,14.109 13.94,14.109 13.93,0 13.93,0 13.93,-14.109 m 2.76,60.039 c 0,-16.856 0,-16.856 -16.52,-16.856 -16.52,0 -16.52,0 -16.52,16.856 0,16.519 0,16.519 16.52,16.519 16.52,0 16.52,0 16.52,-16.519" /><path
         id="path24"
         style="fill:#ffffff;fill-opacity:1;fill-rule:nonzero;stroke:none"
         d="m 1627.41,419.242 c 1.38,-13.933 1.38,-32.527 0,-46.625 -3.77,-40.09 -34.24,-69.687 -76.9,-69.687 -42.49,0 -72.96,29.597 -76.73,69.687 -1.22,13.762 -1.22,31.996 0,45.758 3.95,41.816 34.24,70.891 76.73,70.891 42.66,0 72.95,-28.551 76.9,-70.024 m -125.6,-1.203 c -1.19,-13.426 -1.19,-28.738 0,-43.531 2.42,-26.492 20.83,-44.403 48.7,-44.403 28.04,0 46.45,17.911 48.86,44.403 1.2,14.793 1.2,29.594 0,43.183 -2.41,26.504 -20.82,44.215 -48.86,44.215 -27.87,0 -46.28,-17.551 -48.7,-43.867" /><path
         id="path26"
         style="fill:#ffffff;fill-opacity:1;fill-rule:nonzero;stroke:none"
         d="m 1802.19,306.027 c -13.95,0 -13.95,0 -13.95,12.907 V 417 c 0,30.977 -20.64,44.738 -45.93,44.738 -20.48,0 -38.38,-6.371 -47.49,-12.035 V 318.934 c 0,-12.907 0,-12.907 -13.94,-12.907 -13.93,0 -13.93,0 -13.93,12.907 v 139.539 c 0,6.355 1.72,9.289 5.85,12.207 9.98,7.226 34.59,18.593 70.37,18.593 48.18,0 72.95,-25.984 72.95,-71.07 v -99.269 c 0,-12.907 0,-12.907 -13.93,-12.907" /><path
         id="path28"
         style="fill:#ffffff;fill-opacity:1;fill-rule:nonzero;stroke:none"
         d="m 1928.7,238.063 c -25.79,0 -44.73,7.054 -58.49,14.968 -8.43,4.817 -10.67,6.371 -10.67,9.637 0,1.887 0.85,3.613 4.48,10.148 4.82,7.922 6.01,9.125 9.28,9.125 2.58,0 6.89,-3.265 14.63,-7.226 13.59,-7.055 24.78,-9.985 40.77,-9.985 26.16,0 46.98,15.836 46.98,49.036 v 6.023 c -13.08,-6.359 -28.38,-12.387 -49.56,-12.387 -44.04,0 -68.64,25.813 -72.42,68.649 -1.22,12.219 -1.03,32.004 0,43.707 3.78,43.531 30.11,69.512 76.05,69.512 31.48,0 59.18,-12.047 67.95,-18.418 3.79,-2.918 5.69,-5.676 5.69,-12.383 V 315.141 c 0,-50.411 -32.36,-77.078 -74.69,-77.078 m -47.13,179.457 c -0.87,-10.493 -0.52,-30.454 0,-39.235 2.06,-28.902 16.52,-44.91 47.83,-44.91 23.4,0 39.57,8.953 46.1,14.121 v 102.887 c -1.03,0.859 -20.3,11.699 -45.75,11.699 -33.04,0 -46.12,-18.59 -48.18,-44.562" /><path
         id="path30"
         style="fill:#ffffff;fill-opacity:1;fill-rule:nonzero;stroke:none"
         d="M 2174.02,384.313 H 2069.4 v -5.676 c 0,-32.18 21.16,-49.555 51.97,-49.555 15.31,0 27.53,2.234 39.39,7.574 4.82,2.227 7.58,3.617 9.64,3.617 3.09,0 4.82,-2.757 8.61,-10.668 2.23,-4.82 3.09,-7.242 3.09,-8.957 0,-2.234 -1.71,-3.789 -7.22,-6.531 -10.66,-5.34 -30.97,-11.191 -53.51,-11.191 -48.69,0 -76.05,30.105 -78.81,74.16 -0.68,12.73 -0.51,30.629 0.35,41.457 3.27,43.883 33.89,70.723 76.22,70.723 45.42,0 74.16,-30.457 74.16,-74.149 v -10.672 c 0,-19.273 -1.2,-20.132 -19.27,-20.132 m -7.41,27.871 c 1.9,31.66 -17.55,51.621 -47.48,51.621 -33.89,0 -50.41,-21.164 -49.73,-56.266 h 92.39 c 4.82,0 4.49,0 4.82,4.645" /><path
         id="path32"
         style="fill:#ffffff;fill-opacity:1;fill-rule:nonzero;stroke:none"
         d="m 2470.28,384.313 h -104.61 v -5.676 c 0,-32.18 21.16,-49.555 51.96,-49.555 15.32,0 27.53,2.234 39.4,7.574 4.82,2.227 7.57,3.617 9.64,3.617 3.09,0 4.81,-2.757 8.59,-10.668 2.25,-4.82 3.11,-7.242 3.11,-8.957 0,-2.234 -1.72,-3.789 -7.23,-6.531 -10.66,-5.34 -30.97,-11.191 -53.51,-11.191 -48.7,0 -76.05,30.105 -78.8,74.16 -0.69,12.73 -0.52,30.629 0.34,41.457 3.27,43.883 33.9,70.723 76.21,70.723 45.44,0 74.16,-30.457 74.16,-74.149 v -10.672 c 0,-19.273 -1.19,-20.132 -19.26,-20.132 m -7.4,27.871 c 1.9,31.66 -17.55,51.621 -47.5,51.621 -33.88,0 -50.4,-21.164 -49.71,-56.266 h 92.39 c 4.82,0 4.48,0 4.82,4.645" /><path
         id="path34"
         style="fill:#ffffff;fill-opacity:1;fill-rule:nonzero;stroke:none"
         d="m 2660.68,306.027 c -13.94,0 -13.94,0 -13.94,12.907 V 417 c 0,30.977 -20.65,44.738 -45.94,44.738 -20.47,0 -38.38,-6.371 -47.49,-12.035 V 318.934 c 0,-12.907 0,-12.907 -13.94,-12.907 -13.93,0 -13.93,0 -13.93,12.907 v 139.539 c 0,6.355 1.72,9.289 5.85,12.207 9.98,7.226 34.59,18.593 70.37,18.593 48.18,0 72.95,-25.984 72.95,-71.07 v -99.269 c 0,-12.907 0,-12.907 -13.93,-12.907" /><path
         id="path36"
         style="fill:#ffffff;fill-opacity:1;fill-rule:nonzero;stroke:none"
         d="m 1240.19,581.051 c -9.71,0 -19.41,-3.703 -26.82,-11.113 l -72.46,-72.461 c -14.11,-14.114 -14.14,-36.989 -0.06,-51.137 l 72.41,-72.789 c 7.41,-7.403 17.11,-11.106 26.82,-11.106 9.7,0 19.4,3.703 26.81,11.106 14.81,14.808 14.81,38.828 0,53.629 l -17.7,17.691 c -14.8,14.817 -14.8,38.82 0,53.629 l 17.81,17.809 c 14.81,14.808 14.81,38.82 0,53.629 -7.4,7.41 -17.11,11.113 -26.81,11.113" /><path
         id="path38"
         style="fill:#ffffff;fill-opacity:1;fill-rule:nonzero;stroke:none"
         d="m 1227.12,316.48 -39.77,39.766 c -10.27,10.274 -27.02,10.309 -37.31,0.055 l -39.95,-39.754 c -10.67,-10.668 -10.67,-28.02 0,-38.688 10.32,-10.339 28.34,-10.339 38.68,0 l 9.71,9.715 c 5.56,5.563 14.63,5.563 20.17,0 l 9.78,-9.777 c 5.33,-5.336 12.34,-8 19.34,-8 7.01,0 14.02,2.664 19.35,8 10.66,10.668 10.66,28.019 0,38.683" /><path
         id="path40"
         style="fill:#ffffff;fill-opacity:1;fill-rule:nonzero;stroke:none"
         d="m 1116.01,369.25 c 7.32,7.316 11.35,17.039 11.35,27.387 0,10.34 -4.03,20.058 -11.35,27.363 l -114.59,114.613 c -7.295,7.293 -17.346,10.938 -27.389,10.938 -10.051,0 -20.09,-3.645 -27.39,-10.938 -7.317,-7.308 -11.344,-17.031 -11.344,-27.379 0,-10.343 4.027,-20.074 11.344,-27.394 l 60.989,-60.969 c 14.47,-14.469 14.47,-38.016 0,-52.484 l -61.028,-61.02 c -7.317,-7.316 -11.348,-17.043 -11.348,-27.39 0,-10.34 4.031,-20.067 11.348,-27.383 14.605,-14.617 40.109,-14.649 54.778,0.004 l 114.63,114.652" /></g></g></svg>