<?xml version="1.0" encoding="UTF-8" standalone="no"?>
<svg
   xmlns:dc="http://purl.org/dc/elements/1.1/"
   xmlns:cc="http://creativecommons.org/ns#"
   xmlns:rdf="http://www.w3.org/1999/02/22-rdf-syntax-ns#"
   xmlns:svg="http://www.w3.org/2000/svg"
   xmlns="http://www.w3.org/2000/svg"
   viewBox="0 0 327.60001 224.67999"
   height="224.67999"
   width="327.60001"
   xml:space="preserve"
   id="svg2"
   version="1.1"><metadata
     id="metadata8"><rdf:RDF><cc:Work
         rdf:about=""><dc:format>image/svg+xml</dc:format><dc:type
           rdf:resource="http://purl.org/dc/dcmitype/StillImage" /></cc:Work></rdf:RDF></metadata><defs
     id="defs6" /><g
     transform="matrix(1.3333333,0,0,-1.3333333,0,224.68)"
     id="g10"><g
       transform="scale(0.1)"
       id="g12"><path
         id="path14"
         style="fill:#f0531b;fill-opacity:1;fill-rule:nonzero;stroke:none"
         d="m 150.93,1601.77 c 7.109,-5.98 9.347,-9.33 9.347,-13.82 0,-4.49 -1.875,-7.47 -11.586,-20.16 -8.964,-11.59 -11.949,-15.33 -17.562,-15.33 -4.856,0 -8.207,3 -16.438,6.73 -8.207,3.74 -18.2965,7.1 -29.5152,7.1 -14.9336,0 -20.168,-5.23 -20.168,-10.83 0,-5.98 5.2344,-8.97 18.6758,-11.97 6.7266,-1.49 17.5664,-3.72 23.9144,-5.22 40.347,-9.34 59.406,-28.4 59.406,-62.4 0,-41.46 -38.113,-65.74 -81.8282,-65.74 -37.7305,0 -59.4063,11.58 -73.961,21.67 C 4.48828,1436.66 0,1440.75 0,1446.36 c 0,3.74 1.49219,7.1 10.8359,19.43 9.3438,12.33 13.0743,16.06 18.3125,16.06 4.4766,0 9.3438,-3.73 15.6914,-7.46 10.8243,-6.73 26.1485,-11.22 41.0977,-11.22 15.6755,0 21.6605,5.6 21.6605,11.95 0,5.24 -4.493,9.35 -17.1878,12.33 -8.9649,2.06 -17.3672,3.75 -28.0196,6.36 -28.7656,7.11 -55.66404,25.04 -55.66404,60.9 0,41.84 37.36724,65.75 82.19534,65.75 22.4181,0 47.8201,-6.74 62.0081,-18.69" /><path
         id="path16"
         style="fill:#f0531b;fill-opacity:1;fill-rule:nonzero;stroke:none"
         d="m 283.816,1335.04 c -22.421,0 -42.968,5.6 -60.898,14.19 -15.316,7.47 -21.297,11.58 -21.297,18.68 0,5.23 2.617,10.08 9.332,20.92 10.473,16.44 12.711,19.42 19.07,19.42 5.223,0 11.95,-4.47 22.407,-9.33 9.711,-4.47 18.297,-7.85 31.386,-7.85 22.786,0 32.875,12.52 32.875,32.89 v 3.35 c -10.089,-4.48 -23.543,-8.22 -41.093,-8.22 -47.461,0 -76.227,27.27 -80.703,72.48 -1.493,14.57 -1.114,37.73 0,49.32 4.109,42.58 33.992,79.57 92.652,79.57 36.238,0 67.242,-14.2 79.953,-23.16 8.586,-5.97 10.457,-11.59 10.457,-20.93 v -146.81 c 0,-65.38 -46.699,-94.52 -94.141,-94.52 m -28.023,194.63 c -0.379,-5.6 -0.379,-19.04 0,-26.15 1.113,-18.3 9.711,-31.75 30.262,-31.75 12.695,0 25.402,5.23 30.258,8.6 v 72.84 c -4.11,3.37 -16.438,8.6 -28.766,8.6 -19.426,0 -30.641,-13.07 -31.754,-32.14" /><path
         id="path18"
         style="fill:#f0531b;fill-opacity:1;fill-rule:nonzero;stroke:none"
         d="m 604.941,1543.5 c 1.493,-15.32 1.125,-41.1 0,-56.04 -3.367,-45.57 -32.878,-77.34 -83.308,-77.34 -12.328,0 -28.02,3 -37.742,7.49 v -47.08 c 0,-31.76 0,-31.76 -31.008,-31.76 -31.004,0 -31.004,0 -31.004,31.76 v 211.45 c 0,6.35 1.871,10.09 6.726,13.44 12.329,8.98 42.586,25.04 84.051,25.04 50.442,0 88.172,-31.76 92.285,-76.96 m -121.05,9.33 v -76.95 c 5.234,-3.36 17.562,-7.1 30.257,-7.1 19.438,0 28.403,10.84 29.512,29.52 0.762,11.94 0.762,23.53 0,33.25 -1.488,17.55 -11.187,30.26 -31.75,30.26 -10.09,0 -22.785,-4.87 -28.019,-8.98" /><path
         id="path20"
         style="fill:#4d184c;fill-opacity:1;fill-rule:nonzero;stroke:none"
         d="m 2108.47,1582.09 c 0,-1.03 -0.18,-2.58 -2.41,-10.32 -2.41,-8.09 -3.61,-10.15 -7.22,-10.15 -2.07,0 -5.51,0.69 -11.19,2.06 -4.47,1.04 -9.8,2.07 -18.07,2.07 -19.95,0 -29.93,-8.61 -29.93,-30.28 v -112.7 c 0,-12.73 0,-12.73 -13.77,-12.73 -14.28,0 -14.28,0 -14.28,12.73 v 115.96 c 0,34.07 19.8,54.55 56.1,54.55 11.52,0 23.05,-1.73 30.62,-3.78 5.16,-1.56 10.15,-3.1 10.15,-7.41" /><path
         id="path22"
         style="fill:#4d184c;fill-opacity:1;fill-rule:nonzero;stroke:none"
         d="m 1216.98,1576.07 v -141.26 c 0,-35.43 -10.67,-66.76 -33.04,-85.86 -3.95,-3.43 -6.88,-5.84 -9.8,-5.84 -2.59,0 -4.3,1.38 -9.81,7.91 -5.16,6.2 -6.36,7.57 -6.36,9.99 0,2.4 2.75,4.46 6.02,7.74 19.44,18.4 25.11,32.51 25.11,63.31 v 144.01 c 0,14.11 0,14.11 13.94,14.11 13.94,0 13.94,0 13.94,-14.11 m 2.75,60.04 c 0,-16.85 0,-16.85 -16.52,-16.85 -16.51,0 -16.51,0 -16.51,16.85 0,16.52 0,16.52 16.51,16.52 16.52,0 16.52,0 16.52,-16.52" /><path
         id="path24"
         style="fill:#4d184c;fill-opacity:1;fill-rule:nonzero;stroke:none"
         d="m 1409.85,1523.25 c 1.38,-13.93 1.38,-32.52 0,-46.62 -3.78,-40.09 -34.24,-69.69 -76.91,-69.69 -42.49,0 -72.95,29.6 -76.73,69.69 -1.22,13.76 -1.22,32 0,45.76 3.95,41.81 34.24,70.89 76.73,70.89 42.67,0 72.96,-28.55 76.91,-70.03 m -125.61,-1.2 c -1.19,-13.42 -1.19,-28.74 0,-43.53 2.43,-26.5 20.83,-44.4 48.7,-44.4 28.05,0 46.45,17.9 48.86,44.4 1.21,14.79 1.21,29.59 0,43.18 -2.41,26.51 -20.81,44.22 -48.86,44.22 -27.87,0 -46.27,-17.55 -48.7,-43.87" /><path
         id="path26"
         style="fill:#4d184c;fill-opacity:1;fill-rule:nonzero;stroke:none"
         d="m 1584.62,1410.04 c -13.94,0 -13.94,0 -13.94,12.9 v 98.07 c 0,30.98 -20.65,44.74 -45.93,44.74 -20.48,0 -38.38,-6.37 -47.5,-12.04 v -130.77 c 0,-12.9 0,-12.9 -13.93,-12.9 -13.94,0 -13.94,0 -13.94,12.9 v 139.54 c 0,6.36 1.73,9.29 5.85,12.21 9.99,7.23 34.59,18.6 70.37,18.6 48.18,0 72.96,-25.99 72.96,-71.07 v -99.28 c 0,-12.9 0,-12.9 -13.94,-12.9" /><path
         id="path28"
         style="fill:#4d184c;fill-opacity:1;fill-rule:nonzero;stroke:none"
         d="m 1711.14,1342.07 c -25.8,0 -44.74,7.06 -58.5,14.97 -8.42,4.82 -10.67,6.37 -10.67,9.64 0,1.89 0.86,3.61 4.48,10.15 4.82,7.92 6.02,9.12 9.28,9.12 2.59,0 6.9,-3.26 14.63,-7.22 13.59,-7.06 24.78,-9.99 40.78,-9.99 26.16,0 46.97,15.83 46.97,49.03 v 6.03 c -13.08,-6.36 -28.38,-12.39 -49.55,-12.39 -44.05,0 -68.65,25.82 -72.43,68.65 -1.21,12.22 -1.03,32.01 0,43.71 3.78,43.53 30.11,69.51 76.05,69.51 31.49,0 59.18,-12.05 67.95,-18.42 3.79,-2.91 5.69,-5.67 5.69,-12.38 v -143.33 c 0,-50.41 -32.35,-77.08 -74.68,-77.08 M 1664,1521.53 c -0.86,-10.49 -0.52,-30.45 0,-39.23 2.07,-28.91 16.52,-44.91 47.83,-44.91 23.4,0 39.57,8.95 46.11,14.12 v 102.88 c -1.03,0.86 -20.31,11.7 -45.76,11.7 -33.04,0 -46.11,-18.59 -48.18,-44.56" /><path
         id="path30"
         style="fill:#4d184c;fill-opacity:1;fill-rule:nonzero;stroke:none"
         d="m 1956.45,1488.32 h -104.61 v -5.67 c 0,-32.18 21.16,-49.56 51.96,-49.56 15.31,0 27.54,2.24 39.4,7.58 4.82,2.22 7.57,3.62 9.64,3.62 3.09,0 4.81,-2.76 8.6,-10.68 2.24,-4.81 3.1,-7.23 3.1,-8.95 0,-2.23 -1.72,-3.79 -7.22,-6.53 -10.67,-5.34 -30.98,-11.19 -53.52,-11.19 -48.69,0 -76.05,30.1 -78.8,74.16 -0.69,12.73 -0.51,30.63 0.34,41.45 3.27,43.88 33.9,70.73 76.23,70.73 45.42,0 74.15,-30.46 74.15,-74.15 v -10.67 c 0,-19.28 -1.2,-20.14 -19.27,-20.14 m -7.4,27.88 c 1.9,31.66 -17.55,51.61 -47.48,51.61 -33.9,0 -50.42,-21.16 -49.73,-56.26 h 92.39 c 4.82,0 4.48,0 4.82,4.65" /><path
         id="path32"
         style="fill:#4d184c;fill-opacity:1;fill-rule:nonzero;stroke:none"
         d="M 2252.72,1488.32 H 2148.1 v -5.67 c 0,-32.18 21.16,-49.56 51.97,-49.56 15.31,0 27.52,2.24 39.39,7.58 4.82,2.22 7.58,3.62 9.64,3.62 3.09,0 4.82,-2.76 8.6,-10.68 2.24,-4.81 3.1,-7.23 3.1,-8.95 0,-2.23 -1.71,-3.79 -7.23,-6.53 -10.65,-5.34 -30.96,-11.19 -53.5,-11.19 -48.7,0 -76.05,30.1 -78.81,74.16 -0.68,12.73 -0.52,30.63 0.35,41.45 3.27,43.88 33.89,70.73 76.21,70.73 45.43,0 74.16,-30.46 74.16,-74.15 v -10.67 c 0,-19.28 -1.19,-20.14 -19.26,-20.14 m -7.41,27.88 c 1.9,31.66 -17.55,51.61 -47.49,51.61 -33.88,0 -50.4,-21.16 -49.72,-56.26 h 92.39 c 4.82,0 4.49,0 4.82,4.65" /><path
         id="path34"
         style="fill:#4d184c;fill-opacity:1;fill-rule:nonzero;stroke:none"
         d="m 2443.11,1410.04 c -13.93,0 -13.93,0 -13.93,12.9 v 98.07 c 0,30.98 -20.66,44.74 -45.94,44.74 -20.47,0 -38.38,-6.37 -47.5,-12.04 v -130.77 c 0,-12.9 0,-12.9 -13.93,-12.9 -13.94,0 -13.94,0 -13.94,12.9 v 139.54 c 0,6.36 1.73,9.29 5.85,12.21 9.99,7.23 34.59,18.6 70.37,18.6 48.18,0 72.96,-25.99 72.96,-71.07 v -99.28 c 0,-12.9 0,-12.9 -13.94,-12.9" /><path
         id="path36"
         style="fill:#54c4da;fill-opacity:1;fill-rule:nonzero;stroke:none"
         d="m 1022.62,1685.06 c -9.7,0 -19.4,-3.7 -26.815,-11.11 l -72.457,-72.46 c -14.118,-14.11 -14.145,-36.99 -0.063,-51.14 l 72.41,-72.79 c 7.415,-7.4 17.115,-11.1 26.815,-11.1 9.7,0 19.4,3.7 26.81,11.1 14.82,14.81 14.82,38.83 0,53.63 l -17.69,17.69 c -14.81,14.82 -14.81,38.82 0,53.63 l 17.8,17.81 c 14.82,14.81 14.82,38.82 0,53.63 -7.39,7.41 -17.11,11.11 -26.81,11.11" /><path
         id="path38"
         style="fill:#4d184c;fill-opacity:1;fill-rule:nonzero;stroke:none"
         d="m 1009.55,1420.49 -39.765,39.77 c -10.273,10.27 -27.019,10.31 -37.308,0.05 l -39.954,-39.76 c -10.668,-10.66 -10.668,-28.01 0,-38.68 10.325,-10.34 28.34,-10.34 38.68,0 l 9.711,9.72 c 5.559,5.56 14.629,5.56 20.176,0 l 9.769,-9.78 c 5.332,-5.34 12.34,-8 19.344,-8 7.008,0 14.017,2.66 19.347,8 10.66,10.67 10.66,28.01 0,38.68" /><path
         id="path40"
         style="fill:#f0531b;fill-opacity:1;fill-rule:nonzero;stroke:none"
         d="m 898.445,1473.26 c 7.317,7.32 11.352,17.04 11.352,27.39 0,10.34 -4.035,20.06 -11.352,27.36 l -114.593,114.62 c -7.293,7.29 -17.344,10.93 -27.383,10.93 -10.055,0 -20.094,-3.64 -27.395,-10.93 -7.316,-7.32 -11.34,-17.04 -11.34,-27.38 0,-10.35 4.024,-20.08 11.34,-27.4 l 60.989,-60.97 c 14.468,-14.47 14.468,-38.01 0,-52.48 l -61.024,-61.02 c -7.32,-7.32 -11.351,-17.04 -11.351,-27.39 0,-10.34 4.031,-20.07 11.351,-27.38 14.602,-14.62 40.109,-14.65 54.774,0 l 114.632,114.65" /><path
         id="path42"
         style="fill:#54c4da;fill-opacity:1;fill-rule:nonzero;stroke:none"
         d="m 1007.39,674.629 c -10.011,0 -20.019,-3.82 -27.66,-11.457 L 904.988,588.43 c -14.558,-14.559 -14.586,-38.16 -0.062,-52.75 l 74.691,-75.078 c 7.645,-7.641 17.649,-11.461 27.663,-11.461 10,0 20.01,3.82 27.65,11.461 15.28,15.269 15.28,40.046 0,55.308 l -18.25,18.25 c -15.27,15.281 -15.27,40.051 0,55.32 l 18.36,18.372 c 15.29,15.269 15.29,40.039 0,55.32 -7.62,7.637 -17.64,11.457 -27.65,11.457" /><path
         id="path44"
         style="fill:#4d184c;fill-opacity:1;fill-rule:nonzero;stroke:none"
         d="m 993.906,401.73 -41.015,41.02 c -10.598,10.602 -27.871,10.629 -38.485,0.059 l -41.211,-41.008 c -11.004,-11.012 -11.004,-28.903 0,-39.91 10.653,-10.661 29.235,-10.661 39.903,0 l 10.011,10.019 c 5.735,5.738 15.09,5.738 20.813,0 L 954,361.828 c 5.496,-5.508 12.73,-8.25 19.953,-8.25 7.227,0 14.457,2.742 19.953,8.25 10.994,11 10.994,28.902 0,39.902" /><path
         id="path46"
         style="fill:#f0531b;fill-opacity:1;fill-rule:nonzero;stroke:none"
         d="m 879.305,456.16 c 7.547,7.551 11.707,17.578 11.707,28.25 0,10.66 -4.16,20.692 -11.707,28.231 L 761.102,630.859 c -7.52,7.52 -17.891,11.282 -28.247,11.282 -10.367,0 -20.722,-3.762 -28.253,-11.282 -7.547,-7.539 -11.7,-17.57 -11.7,-28.238 0,-10.68 4.153,-20.711 11.7,-28.262 l 62.91,-62.89 c 14.922,-14.93 14.922,-39.207 0,-54.141 l -62.949,-62.937 c -7.547,-7.539 -11.708,-17.582 -11.708,-28.25 0,-10.672 4.161,-20.7 11.708,-28.25 15.062,-15.071 41.371,-15.11 56.5,0.007 L 879.305,456.16" /><path
         id="path48"
         style="fill:#f0531b;fill-opacity:1;fill-rule:nonzero;stroke:none"
         d="m 125.328,223.871 c 5.899,-4.961 7.762,-7.75 7.762,-11.48 0,-3.723 -1.555,-6.2 -9.617,-16.75 -7.446,-9.61 -9.93,-12.719 -14.582,-12.719 -4.036,0 -6.825,2.488 -13.6527,5.578 -6.8203,3.109 -15.1992,5.898 -24.5078,5.898 -12.4102,0 -16.75,-4.339 -16.75,-8.988 0,-4.969 4.3398,-7.449 15.5117,-9.93 5.582,-1.25 14.582,-3.109 19.8555,-4.351 33.5003,-7.75 49.3243,-23.57 49.3243,-51.809 0,-34.4294 -31.645,-54.6012 -67.9415,-54.6012 -31.3321,0 -49.3282,9.621 -61.42191,18 C 3.72266,86.75 0,90.1602 0,94.8086 c 0,3.1133 1.23828,5.9024 8.99609,16.1404 7.75781,10.242 10.85941,13.34 15.20311,13.34 3.7188,0 7.7539,-3.098 13.0274,-6.211 8.9961,-5.578 21.7187,-9.297 34.125,-9.297 13.0312,0 17.9961,4.649 17.9961,9.918 0,4.352 -3.7266,7.762 -14.2735,10.242 -7.4453,1.707 -14.4258,3.11 -23.2656,5.27 C 27.918,140.109 5.58203,155 5.58203,184.789 c 0,34.742 31.02737,54.602 68.25387,54.602 18.6094,0 39.7071,-5.59 51.4921,-15.52" /><path
         id="path50"
         style="fill:#f0531b;fill-opacity:1;fill-rule:nonzero;stroke:none"
         d="m 203.098,164 c -0.313,-4.66 -0.313,-15.82 0,-21.719 0.929,-15.203 8.066,-26.371 25.125,-26.371 10.55,0 21.097,4.352 25.132,7.141 v 60.488 c -3.414,2.801 -13.652,7.141 -23.89,7.141 -16.133,0 -25.438,-10.86 -26.367,-26.68 z M 226.363,2.37109 c -18.613,0 -35.675,4.64844 -50.566,11.78911 -12.719,6.1992 -17.684,9.6093 -17.684,15.5117 0,4.3398 2.172,8.3789 7.754,17.3672 8.688,13.6601 10.551,16.1328 15.824,16.1328 4.34,0 9.926,-3.7227 18.614,-7.75 8.062,-3.7227 15.199,-6.5235 26.058,-6.5235 18.922,0 27.301,10.4024 27.301,27.3125 v 2.7774 c -8.379,-3.707 -19.543,-6.8164 -34.125,-6.8164 -39.398,0 -63.289,22.6367 -67.008,60.1801 -1.246,12.097 -0.929,31.339 0,40.949 3.41,35.367 28.227,66.09 76.934,66.09 30.094,0 55.84,-11.801 66.39,-19.243 7.137,-4.957 8.684,-9.617 8.684,-17.367 V 80.8594 c 0,-54.2891 -38.773,-78.48831 -78.176,-78.48831" /><path
         id="path52"
         style="fill:#f0531b;fill-opacity:1;fill-rule:nonzero;stroke:none"
         d="m 383.207,183.23 v -63.91 c 4.344,-2.789 14.578,-5.89 25.133,-5.89 16.129,0 23.574,9 24.504,24.511 0.621,9.93 0.621,19.539 0,27.61 -1.239,14.578 -9.305,25.129 -26.367,25.129 -8.379,0 -18.926,-4.032 -23.27,-7.45 z m 100.516,-7.75 c 1.238,-12.718 0.929,-34.128 0,-46.539 -2.793,-37.8394 -27.301,-64.2222 -69.18,-64.2222 -10.238,0 -23.27,2.4921 -31.336,6.2109 V 31.8398 c 0,-26.37105 0,-26.37105 -25.746,-26.37105 -25.75,0 -25.75,0 -25.75,26.37105 V 207.43 c 0,5.269 1.551,8.379 5.582,11.172 10.238,7.437 35.367,20.789 69.801,20.789 41.883,0 73.215,-26.379 76.629,-63.911" /><path
         id="path54"
         style="fill:#4d184c;fill-opacity:1;fill-rule:nonzero;stroke:none"
         d="m 1406.64,229.02 c 0,-0.981 -0.17,-2.469 -2.31,-9.848 -2.3,-7.723 -3.44,-9.692 -6.89,-9.692 -1.98,0 -5.26,0.661 -10.68,1.969 -4.27,0.992 -9.35,1.981 -17.25,1.981 -19.04,0 -28.57,-8.211 -28.58,-28.899 l -0.02,-107.5818 c -0.01,-12.1484 -0.01,-12.1484 -13.14,-12.1484 -13.64,0.0078 -13.64,0.0078 -13.63,12.1601 l 0.02,110.6871 c 0.01,32.524 18.91,52.071 53.57,52.063 10.99,0 22,-1.652 29.22,-3.621 4.93,-1.481 9.69,-2.961 9.69,-7.07" /><path
         id="path56"
         style="fill:#4d184c;fill-opacity:1;fill-rule:nonzero;stroke:none"
         d="M 555.668,223.48 555.633,88.6289 C 555.625,54.8086 545.434,24.9102 524.078,6.69141 c -3.769,-3.28125 -6.57,-5.58203 -9.355,-5.58203 -2.465,0.01171 -4.102,1.32031 -9.364,7.55859 -4.921,5.92183 -6.07,7.22263 -6.07,9.53123 0.004,2.2891 2.633,4.2617 5.754,7.3906 18.559,17.5586 23.98,31.0313 23.984,60.4297 l 0.036,137.4685 c 0.003,13.461 0.003,13.461 13.304,13.461 13.301,0 13.301,0 13.301,-13.469 m 2.645,57.309 c -0.004,-16.09 -0.004,-16.09 -15.774,-16.09 -15.769,0.012 -15.769,0.012 -15.766,16.102 0.004,15.758 0.004,15.758 15.774,15.758 15.766,0 15.766,0 15.766,-15.77" /><path
         id="path58"
         style="fill:#4d184c;fill-opacity:1;fill-rule:nonzero;stroke:none"
         d="m 739.758,173.02 c 1.312,-13.309 1.308,-31.051 -0.008,-44.508 C 736.133,90.2383 707.047,62 666.324,62.0117 c -40.558,0.0078 -69.633,28.2578 -73.226,66.5273 -1.16,13.141 -1.157,30.551 0.007,43.68 3.782,39.922 32.704,67.66 73.258,67.652 40.727,0 69.633,-27.269 73.395,-66.851 m -119.895,-1.129 c -1.14,-12.813 -1.144,-27.43 -0.008,-41.551 2.305,-25.289 19.872,-42.3908 46.473,-42.3908 26.77,-0.0078 44.344,17.0818 46.652,42.3708 1.153,14.121 1.157,28.25 0.008,41.219 -2.293,25.301 -19.859,42.211 -46.629,42.223 -26.605,0 -44.179,-16.742 -46.496,-41.871" /><path
         id="path60"
         style="fill:#4d184c;fill-opacity:1;fill-rule:nonzero;stroke:none"
         d="m 906.566,64.9102 c -13.316,0 -13.316,0 -13.312,12.3203 l 0.023,93.6095 c 0.004,29.57 -19.695,42.711 -43.832,42.711 -19.55,0.008 -36.636,-6.071 -45.34,-11.481 L 804.078,77.25 c -0.004,-12.3203 -0.004,-12.3203 -13.305,-12.3203 -13.304,0.0117 -13.304,0.0117 -13.3,12.3203 l 0.031,133.199 c 0.004,6.071 1.652,8.871 5.586,11.653 9.535,6.898 33.023,17.738 67.18,17.738 45.988,-0.02 69.632,-24.82 69.621,-67.86 l -0.024,-94.7612 c 0,-12.3204 0,-12.3204 -13.301,-12.3086" /><path
         id="path62"
         style="fill:#4d184c;fill-opacity:1;fill-rule:nonzero;stroke:none"
         d="m 1027.31,0 c -24.62,0.0117188 -42.697,6.75 -55.833,14.3008 -8.036,4.5976 -10.18,6.0898 -10.18,9.1992 0,1.8086 0.82,3.4492 4.281,9.6914 4.602,7.5586 5.742,8.707 8.86,8.707 2.464,0 6.578,-3.1171 13.964,-6.8984 12.968,-6.7383 23.648,-9.5391 38.918,-9.5391 24.97,-0.0117 44.84,15.0977 44.85,46.7891 V 78 c -12.48,-6.0703 -27.09,-11.8086 -47.31,-11.8086 -42.036,0.0078 -65.516,24.6484 -69.11,65.5386 -1.156,11.668 -0.977,30.559 0.012,41.719 3.613,41.563 28.754,66.352 72.608,66.34 30.05,-0.008 56.49,-11.508 64.86,-17.59 3.61,-2.789 5.42,-5.418 5.42,-11.828 L 1098.62,73.5586 C 1098.61,25.4414 1067.72,-0.0117188 1027.31,0 m -44.947,171.309 c -0.832,-10.008 -0.504,-29.071 -0.008,-37.45 1.961,-27.589 15.758,-42.8707 45.645,-42.8785 22.34,0 37.77,8.539 44.01,13.4685 l 0.02,98.211 c -0.98,0.82 -19.38,11.168 -43.67,11.18 -31.536,0.012 -44.024,-17.738 -45.997,-42.531" /><path
         id="path64"
         style="fill:#4d184c;fill-opacity:1;fill-rule:nonzero;stroke:none"
         d="m 1261.51,139.551 -99.86,0.019 v -5.41 c -0.01,-30.719 20.19,-47.3084 49.59,-47.3202 14.62,0 26.28,2.129 37.61,7.2188 4.6,2.1328 7.23,3.4531 9.2,3.4531 2.95,0 4.6,-2.6328 8.21,-10.1836 2.13,-4.5976 2.95,-6.9179 2.95,-8.5468 0,-2.1407 -1.64,-3.6211 -6.89,-6.2422 -10.18,-5.0899 -29.57,-10.668 -51.09,-10.668 -46.47,0.0078 -72.58,28.7578 -75.2,70.8089 -0.65,12.148 -0.48,29.242 0.34,39.57 3.13,41.891 32.37,67.5 72.77,67.488 43.36,-0.008 70.78,-29.078 70.77,-70.789 v -10.187 c 0,-18.403 -1.15,-19.211 -18.4,-19.211 m -7.06,26.609 c 1.82,30.219 -16.74,49.27 -45.31,49.281 -32.36,0.008 -48.13,-20.191 -47.49,-53.703 l 88.2,-0.019 c 4.6,0 4.28,0 4.6,4.441" /><path
         id="path66"
         style="fill:#4d184c;fill-opacity:1;fill-rule:nonzero;stroke:none"
         d="m 1544.31,139.48 -99.86,0.032 v -5.422 c -0.01,-30.719 20.19,-47.3087 49.59,-47.3205 14.62,0 26.27,2.1289 37.61,7.2305 4.6,2.1211 7.23,3.4414 9.2,3.4414 2.95,0 4.6,-2.6328 8.2,-10.1797 2.14,-4.6015 2.96,-6.9101 2.96,-8.5508 0,-2.1328 -1.64,-3.6211 -6.9,-6.2304 -10.17,-5.1016 -29.56,-10.6797 -51.08,-10.6719 -46.48,0.0117 -72.58,28.75 -75.2,70.8004 -0.65,12.161 -0.49,29.243 0.34,39.582 3.13,41.879 32.37,67.489 72.76,67.481 43.37,-0.012 70.78,-29.082 70.77,-70.793 v -10.18 c 0,-18.398 -1.14,-19.219 -18.39,-19.219 m -7.06,26.61 c 1.82,30.219 -16.74,49.269 -45.33,49.281 -32.34,0.008 -48.11,-20.191 -47.47,-53.691 l 88.2,-0.02 c 4.6,-0.012 4.28,-0.012 4.6,4.43" /><path
         id="path68"
         style="fill:#4d184c;fill-opacity:1;fill-rule:nonzero;stroke:none"
         d="m 1726.03,64.7109 c -13.3,0 -13.3,0 -13.3,12.3204 l 0.03,93.6097 c 0,29.57 -19.71,42.711 -43.85,42.718 -19.53,0 -36.63,-6.078 -45.33,-11.48 l -0.03,-124.8282 c -0.01,-12.3125 -0.01,-12.3125 -13.31,-12.3125 -13.3,0 -13.3,0 -13.3,12.3203 l 0.03,133.2034 c 0.01,6.066 1.65,8.859 5.59,11.648 9.53,6.899 33.02,17.738 67.18,17.731 45.99,-0.012 69.63,-24.821 69.62,-67.852 l -0.02,-94.7577 c 0,-12.3204 0,-12.3204 -13.31,-12.3204" /></g></g></svg>