<?xml version="1.0" encoding="UTF-8" standalone="no"?>
<svg
   xmlns:dc="http://purl.org/dc/elements/1.1/"
   xmlns:cc="http://creativecommons.org/ns#"
   xmlns:rdf="http://www.w3.org/1999/02/22-rdf-syntax-ns#"
   xmlns:svg="http://www.w3.org/2000/svg"
   xmlns="http://www.w3.org/2000/svg"
   viewBox="0 0 289.93332 151.13333"
   height="151.13333"
   width="289.93332"
   xml:space="preserve"
   id="svg2"
   version="1.1"><metadata
     id="metadata8"><rdf:RDF><cc:Work
         rdf:about=""><dc:format>image/svg+xml</dc:format><dc:type
           rdf:resource="http://purl.org/dc/dcmitype/StillImage" /></cc:Work></rdf:RDF></metadata><defs
     id="defs6" /><g
     transform="matrix(1.3333333,0,0,-1.3333333,0,151.13333)"
     id="g10"><g
       transform="scale(0.1)"
       id="g12"><path
         id="path14"
         style="fill:#54c4da;fill-opacity:1;fill-rule:nonzero;stroke:none"
         d="m 1224.96,915.934 c -10.02,0 -20.02,-3.817 -27.67,-11.461 l -74.73,-74.739 c -14.56,-14.558 -14.59,-38.156 -0.07,-52.75 l 74.69,-75.078 c 7.65,-7.636 17.65,-11.457 27.66,-11.457 10.01,0 20.01,3.821 27.66,11.457 15.28,15.274 15.28,40.047 0,55.317 l -18.25,18.25 c -15.28,15.277 -15.28,40.039 0,55.312 l 18.36,18.371 c 15.28,15.274 15.28,40.043 0,55.317 -7.63,7.644 -17.65,11.461 -27.65,11.461" /><path
         id="path16"
         style="fill:#4d184c;fill-opacity:1;fill-rule:nonzero;stroke:none"
         d="m 1211.47,643.035 -41.01,41.02 c -10.6,10.597 -27.87,10.633 -38.49,0.058 l -41.21,-41.011 c -11,-11 -11,-28.899 0,-39.899 10.65,-10.668 29.24,-10.668 39.9,0 l 10.01,10.02 c 5.74,5.734 15.09,5.734 20.82,0 l 10.07,-10.086 c 5.5,-5.504 12.73,-8.254 19.96,-8.254 7.22,0 14.46,2.75 19.95,8.254 11,11 11,28.898 0,39.898" /><path
         id="path18"
         style="fill:#f0531b;fill-opacity:1;fill-rule:nonzero;stroke:none"
         d="m 1096.87,697.469 c 7.55,7.547 11.71,17.574 11.71,28.246 0,10.668 -4.16,20.691 -11.71,28.226 L 978.668,872.164 c -7.52,7.52 -17.891,11.277 -28.246,11.277 -10.371,0 -20.727,-3.757 -28.254,-11.277 -7.547,-7.543 -11.699,-17.566 -11.699,-28.242 0,-10.672 4.152,-20.703 11.699,-28.258 l 62.906,-62.891 c 14.926,-14.921 14.926,-39.207 0,-54.132 l -62.945,-62.942 c -7.547,-7.547 -11.707,-17.578 -11.707,-28.254 0,-10.664 4.16,-20.699 11.707,-28.246 15.062,-15.074 41.371,-15.109 56.5,0.008 l 118.241,118.262" /><path
         id="path20"
         style="fill:#f0531b;fill-opacity:1;fill-rule:nonzero;stroke:none"
         d="m 342.895,465.176 c 5.898,-4.965 7.761,-7.75 7.761,-11.477 0,-3.722 -1.554,-6.203 -9.621,-16.75 -7.441,-9.617 -9.926,-12.722 -14.578,-12.722 -4.035,0 -6.828,2.488 -13.652,5.586 -6.825,3.101 -15.203,5.898 -24.508,5.898 -12.41,0 -16.75,-4.344 -16.75,-8.996 0,-4.965 4.34,-7.449 15.512,-9.93 5.582,-1.246 14.578,-3.105 19.851,-4.344 33.504,-7.757 49.328,-23.578 49.328,-51.812 0,-34.434 -31.644,-54.602 -67.941,-54.602 -31.332,0 -49.328,9.621 -61.426,17.996 -5.586,4.036 -9.305,7.446 -9.305,12.098 0,3.106 1.239,5.899 8.997,16.137 7.757,10.238 10.859,13.336 15.203,13.336 3.718,0 7.754,-3.098 13.027,-6.203 8.992,-5.582 21.719,-9.309 34.125,-9.309 13.031,0 17.992,4.652 17.992,9.93 0,4.343 -3.722,7.758 -14.269,10.234 -7.446,1.707 -14.426,3.106 -23.266,5.274 -23.891,5.902 -46.227,20.793 -46.227,50.574 0,34.746 31.024,54.601 68.254,54.601 18.61,0 39.707,-5.593 51.493,-15.519" /><path
         id="path22"
         style="fill:#f0531b;fill-opacity:1;fill-rule:nonzero;stroke:none"
         d="m 420.66,405.301 c -0.308,-4.653 -0.308,-15.821 0,-21.711 0.934,-15.203 8.07,-26.367 25.129,-26.367 10.551,0 21.098,4.343 25.133,7.132 v 60.493 c -3.414,2.793 -13.652,7.136 -23.891,7.136 -16.133,0 -25.437,-10.855 -26.371,-26.683 z m 23.27,-161.625 c -18.614,0 -35.676,4.656 -50.571,11.789 -12.718,6.199 -17.679,9.617 -17.679,15.508 0,4.343 2.172,8.379 7.754,17.379 8.687,13.652 10.55,16.128 15.824,16.128 4.34,0 9.926,-3.722 18.609,-7.75 8.067,-3.726 15.203,-6.519 26.063,-6.519 18.922,0 27.3,10.394 27.3,27.301 v 2.789 c -8.378,-3.719 -19.542,-6.824 -34.125,-6.824 -39.402,0 -63.289,22.644 -67.011,60.183 -1.242,12.098 -0.93,31.332 0,40.949 3.414,35.368 28.23,66.086 76.937,66.086 30.09,0 55.84,-11.793 66.391,-19.234 7.137,-4.965 8.683,-9.621 8.683,-17.379 V 322.168 c 0,-54.293 -38.777,-78.492 -78.175,-78.492" /><path
         id="path24"
         style="fill:#f0531b;fill-opacity:1;fill-rule:nonzero;stroke:none"
         d="m 600.773,424.535 v -63.906 c 4.344,-2.789 14.579,-5.895 25.129,-5.895 16.129,0 23.578,9 24.504,24.512 0.625,9.926 0.625,19.543 0,27.613 -1.238,14.582 -9.301,25.125 -26.363,25.125 -8.379,0 -18.926,-4.031 -23.27,-7.449 z m 100.512,-7.75 c 1.242,-12.722 0.934,-34.125 0,-46.539 -2.789,-37.844 -27.297,-64.219 -69.18,-64.219 -10.238,0 -23.265,2.489 -31.332,6.211 v -39.09 c 0,-26.375 0,-26.375 -25.75,-26.375 -25.746,0 -25.746,0 -25.746,26.375 v 175.586 c 0,5.274 1.547,8.379 5.582,11.168 10.239,7.45 35.368,20.793 69.801,20.793 41.883,0 73.211,-26.375 76.625,-63.91" /><path
         id="path26"
         style="fill:#4d184c;fill-opacity:1;fill-rule:nonzero;stroke:none"
         d="m 1624.2,470.328 c 0,-0.984 -0.17,-2.469 -2.3,-9.851 -2.3,-7.719 -3.44,-9.688 -6.89,-9.684 -1.98,0 -5.27,0.652 -10.68,1.969 -4.27,0.984 -9.36,1.968 -17.25,1.972 -19.04,0.004 -28.58,-8.211 -28.58,-28.898 l -0.03,-107.574 c 0,-12.153 0,-12.153 -13.14,-12.149 -13.63,0 -13.63,0 -13.63,12.153 l 0.03,110.695 c 0.01,32.519 18.91,52.066 53.56,52.059 10.99,-0.004 22.01,-1.657 29.23,-3.625 4.93,-1.485 9.68,-2.954 9.68,-7.067" /><path
         id="path28"
         style="fill:#4d184c;fill-opacity:1;fill-rule:nonzero;stroke:none"
         d="M 773.23,464.785 773.199,329.941 C 773.191,296.117 763,266.223 741.645,247.992 c -3.774,-3.273 -6.571,-5.57 -9.36,-5.57 -2.465,0 -4.097,1.316 -9.359,7.555 -4.922,5.918 -6.071,7.222 -6.071,9.531 0,2.289 2.633,4.258 5.75,7.387 18.559,17.566 23.981,31.031 23.989,60.433 l 0.035,137.465 c 0,13.469 0,13.469 13.305,13.465 13.3,-0.004 13.3,-0.004 13.296,-13.473 m 2.645,57.309 c -0.004,-16.086 -0.004,-16.086 -15.77,-16.082 -15.769,0.004 -15.769,0.004 -15.765,16.09 0.004,15.769 0.004,15.769 15.773,15.765 15.766,-0.004 15.766,-0.004 15.762,-15.773" /><path
         id="path30"
         style="fill:#4d184c;fill-opacity:1;fill-rule:nonzero;stroke:none"
         d="m 957.324,414.324 c 1.313,-13.304 1.309,-31.051 -0.011,-44.508 -3.614,-38.269 -32.7,-66.511 -73.422,-66.503 -40.559,0.011 -69.633,28.269 -73.231,66.539 -1.156,13.136 -1.152,30.543 0.012,43.675 3.777,39.918 32.703,67.664 73.258,67.657 40.726,-0.012 69.633,-27.274 73.394,-66.86 M 837.43,413.199 c -1.141,-12.812 -1.145,-27.429 -0.008,-41.551 2.305,-25.289 19.871,-42.386 46.473,-42.394 26.769,-0.008 44.343,17.086 46.652,42.371 1.152,14.121 1.156,28.254 0.008,41.223 -2.293,25.3 -19.86,42.211 -46.629,42.215 -26.606,0.007 -44.18,-16.739 -46.496,-41.864" /><path
         id="path32"
         style="fill:#4d184c;fill-opacity:1;fill-rule:nonzero;stroke:none"
         d="m 1124.13,306.215 c -13.31,0.004 -13.31,0.004 -13.31,12.32 l 0.02,93.61 c 0.01,29.57 -19.69,42.71 -43.83,42.714 -19.55,0.004 -36.63,-6.074 -45.34,-11.476 l -0.03,-124.828 c 0,-12.317 0,-12.317 -13.3,-12.313 -13.305,0 -13.305,0 -13.301,12.321 l 0.031,133.195 c 0,6.07 1.649,8.867 5.59,11.652 9.53,6.899 33.02,17.742 67.17,17.735 45.99,-0.012 69.64,-24.821 69.63,-67.856 l -0.03,-94.762 c 0,-12.316 0,-12.316 -13.3,-12.312" /><path
         id="path34"
         style="fill:#4d184c;fill-opacity:1;fill-rule:nonzero;stroke:none"
         d="m 1244.88,241.309 c -24.62,0.007 -42.7,6.746 -55.84,14.3 -8.03,4.602 -10.18,6.082 -10.18,9.204 0,1.8 0.82,3.449 4.28,9.683 4.61,7.563 5.75,8.711 8.86,8.711 2.47,0 6.58,-3.117 13.97,-6.902 12.97,-6.739 23.65,-9.539 38.92,-9.539 24.96,-0.008 44.84,15.101 44.84,46.793 l 0.01,5.75 c -12.49,-6.067 -27.1,-11.813 -47.31,-11.809 -42.04,0.012 -65.52,24.652 -69.11,65.543 -1.16,11.664 -0.98,30.551 0.01,41.719 3.61,41.551 28.75,66.347 72.6,66.336 30.06,-0.008 56.49,-11.512 64.86,-17.594 3.62,-2.789 5.43,-5.422 5.43,-11.824 l -0.04,-136.813 c -0.01,-48.121 -30.9,-73.566 -71.3,-73.558 m -44.95,171.312 c -0.83,-10.019 -0.51,-29.07 -0.01,-37.453 1.96,-27.586 15.76,-42.871 45.65,-42.879 22.33,-0.004 37.77,8.539 44.01,13.469 l 0.02,98.211 c -0.98,0.816 -19.38,11.172 -43.67,11.179 -31.54,0.008 -44.03,-17.738 -46,-42.527" /><path
         id="path36"
         style="fill:#4d184c;fill-opacity:1;fill-rule:nonzero;stroke:none"
         d="m 1479.07,380.855 -99.85,0.028 -0.01,-5.418 c 0,-30.719 20.19,-47.309 49.6,-47.317 14.61,-0.003 26.28,2.129 37.6,7.223 4.6,2.121 7.24,3.449 9.2,3.445 2.96,0 4.6,-2.632 8.22,-10.183 2.13,-4.602 2.95,-6.91 2.95,-8.547 0,-2.137 -1.64,-3.617 -6.89,-6.238 -10.19,-5.094 -29.57,-10.672 -51.09,-10.668 -46.47,0.011 -72.59,28.758 -75.21,70.808 -0.65,12.153 -0.48,29.235 0.34,39.575 3.13,41.882 32.37,67.496 72.78,67.488 43.35,-0.012 70.78,-29.086 70.77,-70.797 V 400.07 c -0.01,-18.398 -1.16,-19.218 -18.41,-19.215 m -7.06,26.61 c 1.82,30.219 -16.74,49.273 -45.31,49.281 -32.35,0.008 -48.12,-20.191 -47.48,-53.695 l 88.19,-0.02 c 4.6,-0.004 4.28,-0.004 4.6,4.434" /><path
         id="path38"
         style="fill:#4d184c;fill-opacity:1;fill-rule:nonzero;stroke:none"
         d="m 1761.87,380.789 -99.86,0.024 v -5.418 c 0,-30.715 20.19,-47.305 49.59,-47.313 14.62,-0.004 26.28,2.125 37.61,7.223 4.6,2.121 7.23,3.445 9.2,3.445 2.95,0 4.6,-2.633 8.2,-10.184 2.15,-4.601 2.97,-6.914 2.97,-8.55 0,-2.133 -1.64,-3.614 -6.91,-6.235 -10.17,-5.093 -29.55,-10.672 -51.07,-10.668 -46.49,0.012 -72.59,28.754 -75.21,70.809 -0.65,12.148 -0.49,29.234 0.34,39.57 3.13,41.887 32.37,67.5 72.77,67.488 43.36,-0.007 70.78,-29.085 70.77,-70.792 v -10.184 c -0.01,-18.402 -1.15,-19.219 -18.4,-19.215 m -7.06,26.606 c 1.82,30.218 -16.74,49.277 -45.32,49.285 -32.34,0.004 -48.12,-20.192 -47.47,-53.696 l 88.19,-0.023 c 4.6,0 4.28,0 4.6,4.434" /><path
         id="path40"
         style="fill:#4d184c;fill-opacity:1;fill-rule:nonzero;stroke:none"
         d="m 1943.6,306.02 c -13.3,0.003 -13.3,0.003 -13.3,12.32 l 0.02,93.609 c 0.01,29.571 -19.7,42.707 -43.84,42.715 -19.54,0.004 -36.64,-6.07 -45.34,-11.476 l -0.03,-124.829 c 0,-12.316 0,-12.316 -13.3,-12.312 -13.31,0.004 -13.31,0.004 -13.3,12.32 l 0.03,133.196 c 0,6.07 1.65,8.867 5.59,11.652 9.53,6.898 33.02,17.742 67.17,17.734 45.99,-0.011 69.64,-24.82 69.63,-67.855 l -0.03,-94.762 c 0,-12.316 0,-12.316 -13.3,-12.312" /></g></g></svg>