<svg xmlns="http://www.w3.org/2000/svg" xmlns:xlink="http://www.w3.org/1999/xlink" width="1704" zoomAndPan="magnify" viewBox="0 0 1278 242.999999" height="324" preserveAspectRatio="xMidYMid meet" version="1.0"><defs><clipPath id="6ab9e24350"><path d="M 4.007812 64.429688 L 90.257812 64.429688 L 90.257812 173.179688 L 4.007812 173.179688 Z M 4.007812 64.429688 " clip-rule="nonzero"/></clipPath><clipPath id="ab2a371f45"><path d="M 104.238281 64.433594 L 199.488281 64.433594 L 199.488281 212.183594 L 104.238281 212.183594 Z M 104.238281 64.433594 " clip-rule="nonzero"/></clipPath><clipPath id="270578c0b3"><path d="M 222.066406 64.433594 L 317.316406 64.433594 L 317.316406 209.933594 L 222.066406 209.933594 Z M 222.066406 64.433594 " clip-rule="nonzero"/></clipPath><clipPath id="49cc984fe4"><path d="M 1043.753906 78.480469 L 1094 78.480469 L 1094 172.980469 L 1043.753906 172.980469 Z M 1043.753906 78.480469 " clip-rule="nonzero"/></clipPath><clipPath id="49ef1f0b45"><path d="M 602.53125 47.804688 L 634.78125 47.804688 L 634.78125 207.554688 L 602.53125 207.554688 Z M 602.53125 47.804688 " clip-rule="nonzero"/></clipPath><clipPath id="5fb81b9f4a"><path d="M 652.839844 78.480469 L 733 78.480469 L 733 174.480469 L 652.839844 174.480469 Z M 652.839844 78.480469 " clip-rule="nonzero"/></clipPath><clipPath id="1c94e6be4e"><path d="M 753.15625 78.480469 L 830.40625 78.480469 L 830.40625 172.980469 L 753.15625 172.980469 Z M 753.15625 78.480469 " clip-rule="nonzero"/></clipPath><clipPath id="93bfa1927c"><path d="M 849.246094 78.480469 L 927.246094 78.480469 L 927.246094 208.230469 L 849.246094 208.230469 Z M 849.246094 78.480469 " clip-rule="nonzero"/></clipPath><clipPath id="8de90503c6"><path d="M 947.085938 78.480469 L 1025 78.480469 L 1025 174.480469 L 947.085938 174.480469 Z M 947.085938 78.480469 " clip-rule="nonzero"/></clipPath><clipPath id="6c0511798e"><path d="M 1100.214844 78.480469 L 1178 78.480469 L 1178 174.480469 L 1100.214844 174.480469 Z M 1100.214844 78.480469 " clip-rule="nonzero"/></clipPath><clipPath id="259d5db53b"><path d="M 1196.890625 78.480469 L 1274 78.480469 L 1274 172.980469 L 1196.890625 172.980469 Z M 1196.890625 78.480469 " clip-rule="nonzero"/></clipPath><clipPath id="c1762d7aa2"><path d="M 475.78125 31.039062 L 552.28125 31.039062 L 552.28125 144.289062 L 475.78125 144.289062 Z M 475.78125 31.039062 " clip-rule="nonzero"/></clipPath><clipPath id="543d733d0d"><path d="M 461.003906 143.242188 L 530 143.242188 L 530 192 L 461.003906 192 Z M 461.003906 143.242188 " clip-rule="nonzero"/></clipPath><clipPath id="04684bd6e6"><path d="M 525.703125 167.820312 L 505.144531 147.265625 C 499.835938 141.953125 491.179688 141.9375 485.863281 147.234375 L 465.214844 167.785156 C 459.695312 173.304688 459.695312 182.265625 465.214844 187.785156 C 470.546875 193.132812 479.863281 193.132812 485.210938 187.785156 L 490.226562 182.761719 C 493.101562 179.890625 497.789062 179.890625 500.652344 182.761719 L 505.707031 187.816406 C 508.460938 190.578125 512.082031 191.949219 515.703125 191.949219 C 519.328125 191.949219 522.949219 190.570312 525.710938 187.816406 C 531.222656 182.304688 531.222656 173.332031 525.710938 167.820312 " clip-rule="nonzero"/></clipPath><clipPath id="a7e13ad6ad"><path d="M 374.960938 47.324219 L 473.960938 47.324219 L 473.960938 205.574219 L 374.960938 205.574219 Z M 374.960938 47.324219 " clip-rule="nonzero"/></clipPath></defs><g clip-path="url(#6ab9e24350)"><path fill="#f0531b" d="M 81.925781 74.132812 C 85.597656 77.222656 86.75 78.957031 86.75 81.28125 C 86.75 83.605469 85.785156 85.144531 80.769531 91.707031 C 76.140625 97.695312 74.601562 99.628906 71.703125 99.628906 C 69.191406 99.628906 67.460938 98.085938 63.210938 96.148438 C 58.96875 94.214844 53.761719 92.472656 47.96875 92.472656 C 40.257812 92.472656 37.550781 95.183594 37.550781 98.078125 C 37.550781 101.167969 40.257812 102.714844 47.195312 104.257812 C 50.675781 105.03125 56.265625 106.1875 59.546875 106.960938 C 80.386719 111.789062 90.226562 121.640625 90.226562 139.222656 C 90.226562 160.65625 70.542969 173.207031 47.96875 173.207031 C 28.484375 173.207031 17.289062 167.21875 9.769531 162 C 6.292969 159.488281 3.976562 157.371094 3.976562 154.476562 C 3.976562 152.539062 4.75 150.800781 9.578125 144.429688 C 14.402344 138.0625 16.328125 136.125 19.035156 136.125 C 21.347656 136.125 23.859375 138.054688 27.140625 139.980469 C 32.734375 143.460938 40.648438 145.78125 48.367188 145.78125 C 56.460938 145.78125 59.546875 142.886719 59.546875 139.605469 C 59.546875 136.898438 57.230469 134.777344 50.675781 133.230469 C 46.042969 132.164062 41.703125 131.296875 36.203125 129.945312 C 21.34375 126.277344 7.449219 117.003906 7.449219 98.46875 C 7.449219 76.839844 26.753906 64.476562 49.902344 64.476562 C 61.480469 64.476562 74.601562 67.957031 81.925781 74.132812 " fill-opacity="1" fill-rule="nonzero"/></g><g clip-path="url(#ab2a371f45)"><path fill="#f0531b" d="M 150.710938 212.210938 C 139.109375 212.210938 128.46875 209.3125 119.195312 204.867188 C 111.273438 200.996094 108.179688 198.871094 108.179688 195.191406 C 108.179688 192.488281 109.53125 189.972656 113.007812 184.371094 C 118.421875 175.859375 119.585938 174.3125 122.875 174.3125 C 125.578125 174.3125 129.054688 176.625 134.46875 179.140625 C 139.492188 181.457031 143.9375 183.207031 150.710938 183.207031 C 162.503906 183.207031 167.730469 176.722656 167.730469 166.179688 L 167.730469 164.445312 C 162.511719 166.765625 155.542969 168.695312 146.460938 168.695312 C 121.898438 168.695312 107.015625 154.574219 104.703125 131.179688 C 103.929688 123.640625 104.125 111.644531 104.703125 105.652344 C 106.820312 83.621094 122.28125 64.476562 152.644531 64.476562 C 171.402344 64.476562 187.441406 71.832031 194.019531 76.464844 C 198.464844 79.550781 199.433594 82.457031 199.433594 87.292969 L 199.433594 163.289062 C 199.433594 197.121094 175.269531 212.210938 150.710938 212.210938 M 136.210938 111.472656 C 136.015625 114.371094 136.015625 121.324219 136.210938 125.003906 C 136.789062 134.476562 141.234375 141.4375 151.871094 141.4375 C 158.441406 141.4375 165.019531 138.726562 167.535156 136.992188 L 167.535156 99.28125 C 165.410156 97.539062 159.027344 94.828125 152.644531 94.828125 C 142.59375 94.828125 136.789062 101.59375 136.210938 111.464844 " fill-opacity="1" fill-rule="nonzero"/></g><g clip-path="url(#270578c0b3)"><path fill="#f0531b" d="M 316.730469 104.226562 C 317.503906 112.140625 317.316406 125.453125 316.730469 133.171875 C 314.988281 156.710938 299.710938 173.117188 273.617188 173.117188 C 267.234375 173.117188 259.117188 171.574219 254.085938 169.25 L 254.085938 193.5625 C 254.085938 209.964844 254.085938 209.964844 238.039062 209.964844 C 221.988281 209.964844 221.988281 209.964844 221.988281 193.5625 L 221.988281 84.351562 C 221.988281 81.078125 222.957031 79.144531 225.472656 77.410156 C 231.847656 72.773438 247.515625 64.476562 268.96875 64.476562 C 295.070312 64.476562 314.605469 80.882812 316.730469 104.226562 M 254.085938 99.402344 L 254.085938 139.152344 C 256.796875 140.882812 263.179688 142.816406 269.75 142.816406 C 279.804688 142.816406 284.445312 137.21875 285.023438 127.574219 C 285.414062 121.398438 285.414062 115.417969 285.023438 110.394531 C 284.25 101.328125 279.234375 94.761719 268.59375 94.761719 C 263.375 94.761719 256.796875 97.28125 254.09375 99.402344 " fill-opacity="1" fill-rule="nonzero"/></g><g clip-path="url(#49cc984fe4)"><path fill="#ffffff" d="M 1093.773438 84.289062 C 1093.773438 84.820312 1093.679688 85.621094 1092.523438 89.609375 C 1091.273438 93.777344 1090.65625 94.839844 1088.773438 94.839844 C 1087.695312 94.839844 1085.914062 94.488281 1082.96875 93.777344 C 1080.648438 93.246094 1077.886719 92.714844 1073.597656 92.714844 C 1063.253906 92.714844 1058.066406 97.152344 1058.066406 108.332031 L 1058.066406 166.453125 C 1058.066406 173.015625 1058.066406 173.015625 1050.929688 173.015625 C 1043.523438 173.015625 1043.523438 173.015625 1043.523438 166.453125 L 1043.523438 106.65625 C 1043.523438 89.085938 1053.789062 78.519531 1072.625 78.519531 C 1078.59375 78.519531 1084.585938 79.410156 1088.507812 80.472656 C 1091.191406 81.273438 1093.777344 82.066406 1093.777344 84.289062 " fill-opacity="1" fill-rule="nonzero"/></g><g clip-path="url(#49ef1f0b45)"><path fill="#ffffff" d="M 633.195312 87.359375 L 633.195312 160.261719 C 633.195312 178.550781 627.628906 194.714844 615.945312 204.570312 C 613.886719 206.339844 612.355469 207.582031 610.832031 207.582031 C 609.484375 207.582031 608.589844 206.871094 605.710938 203.5 C 603.023438 200.304688 602.394531 199.597656 602.394531 198.347656 C 602.394531 197.113281 603.832031 196.050781 605.546875 194.355469 C 615.6875 184.855469 618.652344 177.574219 618.652344 161.679688 L 618.652344 87.359375 C 618.652344 80.078125 618.652344 80.078125 625.933594 80.078125 C 633.210938 80.078125 633.203125 80.078125 633.203125 87.359375 M 634.644531 56.371094 C 634.644531 65.074219 634.644531 65.074219 626.015625 65.074219 C 617.386719 65.074219 617.386719 65.074219 617.386719 56.371094 C 617.386719 47.851562 617.386719 47.851562 626.007812 47.851562 C 634.628906 47.851562 634.636719 47.851562 634.636719 56.371094 " fill-opacity="1" fill-rule="nonzero"/></g><g clip-path="url(#5fb81b9f4a)"><path fill="#ffffff" d="M 732.398438 114.597656 C 733.109375 121.773438 733.109375 131.355469 732.398438 138.613281 C 730.453125 159.269531 714.734375 174.519531 692.734375 174.519531 C 670.820312 174.519531 655.105469 159.269531 653.160156 138.613281 C 652.53125 131.527344 652.53125 122.132812 653.160156 115.042969 C 655.195312 93.5 670.820312 78.519531 692.734375 78.519531 C 714.734375 78.519531 730.355469 93.230469 732.398438 114.597656 M 667.617188 115.214844 C 667.003906 122.132812 667.003906 130.027344 667.617188 137.644531 C 668.867188 151.292969 678.363281 160.519531 692.734375 160.519531 C 707.191406 160.519531 716.6875 151.292969 717.929688 137.644531 C 718.554688 130.027344 718.554688 122.394531 717.929688 115.394531 C 716.6875 101.746094 707.191406 92.617188 692.734375 92.617188 C 678.355469 92.617188 668.867188 101.664062 667.617188 115.214844 " fill-opacity="1" fill-rule="nonzero"/></g><g clip-path="url(#1c94e6be4e)"><path fill="#ffffff" d="M 823.019531 173.015625 C 815.796875 173.015625 815.796875 173.015625 815.796875 166.363281 L 815.796875 115.789062 C 815.796875 99.8125 805.113281 92.71875 792.015625 92.71875 C 781.414062 92.71875 772.140625 96.003906 767.421875 98.921875 L 767.421875 166.355469 C 767.421875 173.007812 767.421875 173.007812 760.199219 173.007812 C 752.980469 173.007812 752.988281 173.007812 752.988281 166.355469 L 752.988281 94.402344 C 752.988281 91.125 753.878906 89.613281 756.015625 88.109375 C 761.175781 84.382812 773.921875 78.515625 792.453125 78.515625 C 817.398438 78.515625 830.226562 91.917969 830.226562 115.167969 L 830.226562 166.355469 C 830.226562 173.007812 830.226562 173.007812 823.011719 173.007812 " fill-opacity="1" fill-rule="nonzero"/></g><g clip-path="url(#93bfa1927c)"><path fill="#ffffff" d="M 888.351562 208.265625 C 874.992188 208.265625 865.171875 204.625 858.042969 200.53125 C 853.675781 198.042969 852.519531 197.242188 852.519531 195.554688 C 852.519531 194.582031 852.960938 193.691406 854.839844 190.316406 C 857.335938 186.226562 857.953125 185.601562 859.652344 185.601562 C 860.992188 185.601562 863.226562 187.289062 867.234375 189.335938 C 874.277344 192.976562 880.074219 194.492188 888.359375 194.492188 C 901.917969 194.492188 912.707031 186.316406 912.707031 169.167969 L 912.707031 166.058594 C 905.929688 169.339844 898 172.457031 887.023438 172.457031 C 864.203125 172.457031 851.457031 159.125 849.496094 137 C 848.863281 130.6875 848.960938 120.464844 849.496094 114.425781 C 851.441406 91.933594 865.089844 78.515625 888.894531 78.515625 C 905.203125 78.515625 919.554688 84.738281 924.105469 88.027344 C 926.066406 89.535156 927.050781 90.957031 927.050781 94.421875 L 927.050781 168.457031 C 927.050781 194.492188 910.285156 208.265625 888.351562 208.265625 M 863.933594 115.578125 C 863.480469 121 863.660156 131.3125 863.933594 135.84375 C 865 150.773438 872.496094 159.042969 888.714844 159.042969 C 900.839844 159.042969 909.21875 154.417969 912.601562 151.75 L 912.601562 98.605469 C 912.066406 98.160156 902.082031 92.5625 888.894531 92.5625 C 871.773438 92.5625 865 102.164062 863.933594 115.578125 " fill-opacity="1" fill-rule="nonzero"/></g><g clip-path="url(#8de90503c6)"><path fill="#ffffff" d="M 1014.921875 132.589844 L 960.9375 132.589844 L 960.9375 135.519531 C 960.9375 152.101562 971.855469 161.046875 987.757812 161.046875 C 995.65625 161.046875 1001.960938 159.898438 1008.085938 157.144531 C 1010.574219 156.003906 1011.996094 155.285156 1013.058594 155.285156 C 1014.652344 155.285156 1015.546875 156.703125 1017.5 160.777344 C 1018.652344 163.261719 1019.09375 164.507812 1019.09375 165.390625 C 1019.09375 166.542969 1018.210938 167.34375 1015.367188 168.753906 C 1009.863281 171.503906 999.386719 174.519531 987.75 174.519531 C 962.628906 174.519531 948.507812 159.015625 947.085938 136.3125 C 946.734375 129.757812 946.824219 120.539062 947.265625 114.957031 C 948.949219 92.351562 964.753906 78.519531 986.597656 78.519531 C 1010.035156 78.519531 1024.867188 94.210938 1024.867188 116.71875 L 1024.867188 122.214844 C 1024.867188 132.140625 1024.246094 132.582031 1014.921875 132.582031 M 1011.097656 118.238281 C 1012.078125 101.925781 1002.042969 91.640625 986.597656 91.640625 C 969.105469 91.640625 960.585938 102.546875 960.9375 120.628906 L 1008.613281 120.628906 C 1011.097656 120.628906 1010.925781 120.628906 1011.097656 118.238281 " fill-opacity="1" fill-rule="nonzero"/></g><g clip-path="url(#6c0511798e)"><path fill="#ffffff" d="M 1168.027344 132.589844 L 1114.039062 132.589844 L 1114.039062 135.519531 C 1114.039062 152.101562 1124.957031 161.046875 1140.855469 161.046875 C 1148.761719 161.046875 1155.058594 159.898438 1161.183594 157.148438 C 1163.671875 156.003906 1165.09375 155.285156 1166.15625 155.285156 C 1167.75 155.285156 1168.636719 156.707031 1170.589844 160.78125 C 1171.75 163.261719 1172.191406 164.511719 1172.191406 165.390625 C 1172.191406 166.542969 1171.300781 167.34375 1168.460938 168.757812 C 1162.960938 171.507812 1152.484375 174.519531 1140.847656 174.519531 C 1115.71875 174.519531 1101.601562 159.007812 1100.179688 136.3125 C 1099.820312 129.757812 1099.910156 120.53125 1100.351562 114.953125 C 1102.050781 92.347656 1117.859375 78.519531 1139.695312 78.519531 C 1163.144531 78.519531 1177.964844 94.210938 1177.964844 116.71875 L 1177.964844 122.214844 C 1177.964844 132.140625 1177.351562 132.582031 1168.027344 132.582031 M 1164.210938 118.222656 C 1165.191406 101.925781 1155.148438 91.640625 1139.695312 91.640625 C 1122.210938 91.640625 1113.6875 102.546875 1114.039062 120.628906 L 1161.714844 120.628906 C 1164.203125 120.628906 1164.03125 120.628906 1164.203125 118.238281 " fill-opacity="1" fill-rule="nonzero"/></g><g clip-path="url(#259d5db53b)"><path fill="#ffffff" d="M 1266.660156 173.015625 C 1259.441406 173.015625 1259.441406 173.015625 1259.441406 166.363281 L 1259.441406 115.789062 C 1259.441406 99.8125 1248.746094 92.71875 1235.648438 92.71875 C 1225.046875 92.71875 1215.773438 96.003906 1211.054688 98.921875 L 1211.054688 166.355469 C 1211.054688 173.007812 1211.054688 173.007812 1203.835938 173.007812 C 1196.613281 173.007812 1196.621094 173.007812 1196.621094 166.355469 L 1196.621094 94.402344 C 1196.621094 91.125 1197.515625 89.613281 1199.648438 88.109375 C 1204.820312 84.382812 1217.5625 78.515625 1236.09375 78.515625 C 1261.039062 78.515625 1273.867188 91.917969 1273.867188 115.167969 L 1273.867188 166.355469 C 1273.867188 173.007812 1273.867188 173.007812 1266.652344 173.007812 " fill-opacity="1" fill-rule="nonzero"/></g><g clip-path="url(#c1762d7aa2)"><path fill="#54c4da" d="M 532.53125 31.09375 C 527.503906 31.09375 522.480469 33.011719 518.652344 36.851562 L 481.144531 74.382812 C 473.84375 81.699219 473.828125 93.550781 481.113281 100.878906 L 518.589844 138.582031 C 522.429688 142.417969 527.445312 144.335938 532.46875 144.335938 C 537.492188 144.335938 542.511719 142.417969 546.347656 138.582031 C 554.015625 130.910156 554.015625 118.46875 546.347656 110.800781 L 537.1875 101.640625 C 529.523438 93.964844 529.523438 81.53125 537.1875 73.859375 L 546.410156 64.632812 C 554.078125 56.960938 554.078125 44.527344 546.410156 36.851562 C 542.578125 33.011719 537.554688 31.09375 532.53125 31.09375 " fill-opacity="1" fill-rule="nonzero"/></g><g clip-path="url(#543d733d0d)"><g clip-path="url(#04684bd6e6)"><path fill="#4d184c" d="M 461.195312 143.242188 L 530.027344 143.242188 L 530.027344 191.921875 L 461.195312 191.921875 Z M 461.195312 143.242188 " fill-opacity="1" fill-rule="nonzero"/></g></g><g clip-path="url(#a7e13ad6ad)"><path fill="#f0531b" d="M 468.007812 140.625 C 471.777344 136.84375 473.855469 131.8125 473.855469 126.460938 C 473.855469 121.109375 471.777344 116.089844 468.007812 112.304688 L 408.957031 53.019531 C 405.195312 49.25 400.015625 47.359375 394.839844 47.359375 C 389.667969 47.359375 384.492188 49.25 380.730469 53.019531 C 376.953125 56.800781 374.882812 61.832031 374.882812 67.183594 C 374.882812 72.535156 376.953125 77.5625 380.730469 81.351562 L 412.160156 112.890625 C 419.613281 120.375 419.613281 132.558594 412.160156 140.039062 L 380.707031 171.601562 C 376.941406 175.382812 374.859375 180.421875 374.859375 185.773438 C 374.859375 191.125 376.941406 196.152344 380.707031 199.9375 C 388.238281 207.492188 401.375 207.515625 408.9375 199.9375 L 468.007812 140.632812 " fill-opacity="1" fill-rule="nonzero"/></g></svg>